{
.appVersion = "1342";
copyright = MIT;
date = "2020-12-24 22:58:13 +0000";
designer = "Gelehte Crest";
designerURL = "https://blog.gelehrte.com";
familyName = FF14Figure;
fontMaster = (
{
ascender = 800;
capHeight = 700;
descender = -200;
id = "9D2CFCBA-A91A-4722-94B4-AF0C172E062A";
xHeight = 500;
}
);
glyphs = (
{
glyphname = A;
lastChange = "2020-12-22 20:39:39 +0000";
layers = (
{
layerId = "9D2CFCBA-A91A-4722-94B4-AF0C172E062A";
paths = (
{
closed = 1;
nodes = (
"394 699 LINE",
"66 1 LINE",
"30 1 LINE",
"30 699 LINE",
"92 699 LINE",
"217 378 LINE",
"243 432 LINE",
"139 699 LINE",
"139 699 LINE"
);
},
{
closed = 1;
nodes = (
"115 1 LINE",
"443 699 LINE",
"462 699 LINE",
"462 1 LINE",
"413 1 LINE",
"288 316 LINE",
"262 262 LINE",
"365 1 LINE",
"365 1 LINE"
);
}
);
width = 492;
}
);
unicode = 0041;
},
{
glyphname = B;
lastChange = "2020-12-22 20:41:10 +0000";
layers = (
{
layerId = "9D2CFCBA-A91A-4722-94B4-AF0C172E062A";
paths = (
{
closed = 1;
nodes = (
"132 168 LINE",
"173 168 LINE",
"173 601 LINE SMOOTH",
"179 597 OFFCURVE",
"245 558 OFFCURVE",
"280 566 CURVE",
"360 586 OFFCURVE",
"399 661 OFFCURVE",
"413 698 CURVE",
"463 698 LINE",
"463 1 LINE",
"375 1 LINE",
"375 497 LINE",
"334 497 LINE",
"334 63 LINE",
"318 71 OFFCURVE",
"260 100 OFFCURVE",
"228 93 CURVE",
"167 79 OFFCURVE",
"129 36 OFFCURVE",
"108 1 CURVE",
"30 1 LINE",
"30 698 LINE",
"132 698 LINE",
"132 698 LINE"
);
}
);
width = 493;
}
);
unicode = 0042;
},
{
glyphname = C;
lastChange = "2020-12-22 20:43:11 +0000";
layers = (
{
layerId = "9D2CFCBA-A91A-4722-94B4-AF0C172E062A";
paths = (
{
closed = 1;
nodes = (
"463 698 LINE",
"463 1 LINE",
"164 1 LINE",
"164 266 LINE",
"186 251 OFFCURVE",
"214 242 OFFCURVE",
"245 242 CURVE",
"313 242 OFFCURVE",
"368 286 OFFCURVE",
"368 339 CURVE",
"368 340 OFFCURVE",
"368 341 OFFCURVE",
"368 342 CURVE",
"368 698 LINE",
"368 698 LINE"
);
},
{
closed = 1;
nodes = (
"325 412 LINE",
"303 426 OFFCURVE",
"275 435 OFFCURVE",
"245 435 CURVE",
"176 435 OFFCURVE",
"121 392 OFFCURVE",
"121 339 CURVE",
"121 338 OFFCURVE",
"121 338 OFFCURVE",
"121 338 CURVE",
"121 338 LINE",
"121 1 LINE",
"30 1 LINE",
"30 698 LINE",
"325 698 LINE",
"325 698 LINE"
);
}
);
width = 493;
}
);
unicode = 0043;
},
{
glyphname = D;
lastChange = "2020-12-22 20:45:00 +0000";
layers = (
{
layerId = "9D2CFCBA-A91A-4722-94B4-AF0C172E062A";
paths = (
{
closed = 1;
nodes = (
"348 668 OFFCURVE",
"374 581 OFFCURVE",
"413 581 CURVE",
"435 581 OFFCURVE",
"451 562 OFFCURVE",
"463 539 CURVE",
"463 1 LINE",
"349 1 LINE",
"349 281 LINE",
"349 281 LINE",
"203 447 LINE",
"204 698 LINE",
"340 698 LINE",
"340 698 LINE"
);
},
{
closed = 1;
nodes = (
"149 427 LINE",
"149 427 LINE",
"294 260 LINE",
"294 1 LINE",
"154 1 LINE",
"144 36 OFFCURVE",
"120 107 OFFCURVE",
"84 107 CURVE",
"59 108 OFFCURVE",
"42 133 OFFCURVE",
"30 159 CURVE",
"30 698 LINE",
"149 698 LINE",
"149 698 LINE"
);
}
);
width = 493;
}
);
unicode = 0044;
},
{
glyphname = E;
lastChange = "2020-12-22 20:47:52 +0000";
layers = (
{
layerId = "9D2CFCBA-A91A-4722-94B4-AF0C172E062A";
paths = (
{
closed = 1;
nodes = (
"301 493 LINE",
"361 553 LINE",
"361 698 LINE",
"463 698 LINE",
"463 1 LINE",
"222 1 LINE",
"245 30 OFFCURVE",
"291 88 OFFCURVE",
"314 123 CURVE",
"328 143 OFFCURVE",
"359 191 OFFCURVE",
"358 220 CURVE",
"356 249 OFFCURVE",
"337 283 OFFCURVE",
"315 282 CURVE",
"287 280 OFFCURVE",
"299 223 OFFCURVE",
"286 196 CURVE",
"271 164 OFFCURVE",
"247 126 OFFCURVE",
"224 93 CURVE",
"204 67 OFFCURVE",
"163 21 OFFCURVE",
"144 1 CURVE",
"30 1 LINE",
"30 160 LINE",
"61 177 OFFCURVE",
"104 203 OFFCURVE",
"125 224 CURVE",
"159 259 OFFCURVE",
"200 307 OFFCURVE",
"201 353 CURVE",
"201 417 OFFCURVE",
"201 614 OFFCURVE",
"201 698 CURVE",
"301 698 LINE",
"301 698 LINE"
);
},
{
closed = 1;
nodes = (
"148 617 OFFCURVE",
"149 412 OFFCURVE",
"149 352 CURVE",
"148 325 OFFCURVE",
"116 295 OFFCURVE",
"96 277 CURVE",
"83 265 OFFCURVE",
"54 244 OFFCURVE",
"30 226 CURVE",
"30 698 LINE",
"149 698 LINE",
"149 698 LINE"
);
}
);
width = 493;
}
);
unicode = 0045;
},
{
glyphname = F;
lastChange = "2020-12-22 20:54:05 +0000";
layers = (
{
layerId = "9D2CFCBA-A91A-4722-94B4-AF0C172E062A";
paths = (
{
closed = 1;
nodes = (
"272 698 LINE",
"463 698 LINE",
"463 1 LINE",
"369 1 LINE",
"369 73 OFFCURVE",
"369 240 OFFCURVE",
"369 290 CURVE",
"369 301 OFFCURVE",
"349 305 OFFCURVE",
"339 305 CURVE",
"330 305 OFFCURVE",
"312 300 OFFCURVE",
"311 290 CURVE",
"311 240 OFFCURVE",
"311 69 OFFCURVE",
"311 1 CURVE",
"181 1 LINE",
"181 73 OFFCURVE",
"181 240 OFFCURVE",
"181 290 CURVE",
"181 301 OFFCURVE",
"162 305 OFFCURVE",
"152 305 CURVE",
"143 305 OFFCURVE",
"124 300 OFFCURVE",
"124 290 CURVE",
"124 240 OFFCURVE",
"124 69 OFFCURVE",
"124 1 CURVE",
"30 1 LINE",
"30 698 LINE",
"217 698 LINE",
"216 665 OFFCURVE",
"218 500 OFFCURVE",
"217 423 CURVE",
"217 408 OFFCURVE",
"196 397 OFFCURVE",
"196 387 CURVE",
"196 377 OFFCURVE",
"236 357 OFFCURVE",
"246 357 CURVE",
"256 357 OFFCURVE",
"297 378 OFFCURVE",
"297 388 CURVE",
"296 398 OFFCURVE",
"272 408 OFFCURVE",
"272 423 CURVE",
"272 503 OFFCURVE",
"273 664 OFFCURVE",
"272 698 CURVE"
);
}
);
width = 493;
}
);
unicode = 0046;
},
{
glyphname = G;
lastChange = "2020-12-22 20:56:39 +0000";
layers = (
{
layerId = "9D2CFCBA-A91A-4722-94B4-AF0C172E062A";
paths = (
{
closed = 1;
nodes = (
"110 1 LINE",
"30 1 LINE",
"30 698 LINE",
"110 698 LINE",
"110 698 LINE"
);
},
{
closed = 1;
nodes = (
"430 465 OFFCURVE",
"362 412 OFFCURVE",
"333 373 CURVE",
"294 319 OFFCURVE",
"247 246 OFFCURVE",
"246 176 CURVE",
"245 127 OFFCURVE",
"246 48 OFFCURVE",
"246 1 CURVE",
"171 1 LINE",
"171 698 LINE",
"463 698 LINE",
"463 490 LINE",
"463 490 LINE"
);
},
{
closed = 1;
nodes = (
"306 51 OFFCURVE",
"306 137 OFFCURVE",
"306 177 CURVE",
"306 215 OFFCURVE",
"337 279 OFFCURVE",
"359 309 CURVE",
"395 360 OFFCURVE",
"447 364 OFFCURVE",
"463 364 CURVE",
"463 1 LINE",
"306 1 LINE",
"306 1 LINE"
);
}
);
width = 493;
}
);
unicode = 0047;
},
{
glyphname = H;
lastChange = "2020-12-22 21:04:53 +0000";
layers = (
{
layerId = "9D2CFCBA-A91A-4722-94B4-AF0C172E062A";
paths = (
{
closed = 1;
nodes = (
"30 242 LINE",
"30 698 LINE",
"463 698 LINE",
"463 1 LINE",
"30 1 LINE",
"30 170 LINE",
"59 170 OFFCURVE",
"97 170 OFFCURVE",
"113 170 CURVE",
"130 170 OFFCURVE",
"150 176 OFFCURVE",
"160 189 CURVE",
"172 204 OFFCURVE",
"187 235 OFFCURVE",
"186 260 CURVE",
"186 329 OFFCURVE",
"186 626 OFFCURVE",
"186 626 CURVE",
"127 626 LINE",
"127 626 OFFCURVE",
"127 332 OFFCURVE",
"127 270 CURVE",
"127 264 OFFCURVE",
"123 258 OFFCURVE",
"118 253 CURVE",
"114 249 OFFCURVE",
"108 242 OFFCURVE",
"101 242 CURVE",
"88 241 OFFCURVE",
"57 242 OFFCURVE",
"30 242 CURVE"
);
},
{
closed = 1;
nodes = (
"373 626 LINE",
"314 626 LINE",
"314 626 OFFCURVE",
"314 419 OFFCURVE",
"314 343 CURVE",
"313 284 OFFCURVE",
"230 207 OFFCURVE",
"265 172 CURVE",
"284 154 OFFCURVE",
"372 192 OFFCURVE",
"373 257 CURVE",
"373 330 OFFCURVE",
"373 626 OFFCURVE",
"373 626 CURVE"
);
}
);
width = 493;
}
);
unicode = 0048;
},
{
glyphname = I;
lastChange = "2020-12-22 21:07:32 +0000";
layers = (
{
layerId = "9D2CFCBA-A91A-4722-94B4-AF0C172E062A";
paths = (
{
closed = 1;
nodes = (
"463 457 LINE",
"463 1 LINE",
"30 1 LINE",
"30 698 LINE",
"463 698 LINE",
"463 529 LINE",
"434 529 OFFCURVE",
"396 529 OFFCURVE",
"380 529 CURVE",
"363 529 OFFCURVE",
"343 523 OFFCURVE",
"333 510 CURVE",
"321 495 OFFCURVE",
"306 464 OFFCURVE",
"307 439 CURVE",
"307 370 OFFCURVE",
"307 73 OFFCURVE",
"307 73 CURVE",
"366 73 LINE",
"366 73 OFFCURVE",
"366 367 OFFCURVE",
"366 429 CURVE",
"366 435 OFFCURVE",
"370 441 OFFCURVE",
"375 446 CURVE",
"379 450 OFFCURVE",
"385 457 OFFCURVE",
"392 457 CURVE",
"405 458 OFFCURVE",
"436 457 OFFCURVE",
"463 457 CURVE"
);
},
{
closed = 1;
nodes = (
"120 73 LINE",
"179 73 LINE",
"179 73 OFFCURVE",
"179 280 OFFCURVE",
"179 356 CURVE",
"180 415 OFFCURVE",
"263 492 OFFCURVE",
"228 527 CURVE",
"209 545 OFFCURVE",
"121 507 OFFCURVE",
"120 442 CURVE",
"120 369 OFFCURVE",
"120 73 OFFCURVE",
"120 73 CURVE"
);
}
);
width = 493;
}
);
unicode = 0049;
},
{
glyphname = J;
lastChange = "2020-12-22 21:08:15 +0000";
layers = (
{
layerId = "9D2CFCBA-A91A-4722-94B4-AF0C172E062A";
paths = (
{
closed = 1;
nodes = (
"383 698 LINE",
"463 698 LINE",
"463 1 LINE",
"383 1 LINE",
"383 1 LINE"
);
},
{
closed = 1;
nodes = (
"63 234 OFFCURVE",
"131 287 OFFCURVE",
"160 326 CURVE",
"199 380 OFFCURVE",
"246 453 OFFCURVE",
"247 523 CURVE",
"248 572 OFFCURVE",
"247 651 OFFCURVE",
"247 698 CURVE",
"322 698 LINE",
"322 1 LINE",
"30 1 LINE",
"30 209 LINE",
"30 209 LINE"
);
},
{
closed = 1;
nodes = (
"187 648 OFFCURVE",
"187 562 OFFCURVE",
"187 522 CURVE",
"187 484 OFFCURVE",
"156 420 OFFCURVE",
"134 390 CURVE",
"98 339 OFFCURVE",
"46 335 OFFCURVE",
"30 335 CURVE",
"30 698 LINE",
"187 698 LINE",
"187 698 LINE"
);
}
);
width = 493;
}
);
unicode = 004A;
},
{
glyphname = K;
lastChange = "2020-12-22 21:53:36 +0000";
layers = (
{
layerId = "9D2CFCBA-A91A-4722-94B4-AF0C172E062A";
paths = (
{
closed = 1;
nodes = (
"463 1 LINE",
"30 1 LINE",
"30 123 LINE",
"195 123 LINE",
"195 123 LINE",
"195 100 OFFCURVE",
"229 79 OFFCURVE",
"247 79 CURVE",
"264 79 OFFCURVE",
"299 100 OFFCURVE",
"299 123 CURVE",
"299 123 OFFCURVE",
"299 123 OFFCURVE",
"299 123 CURVE",
"463 123 LINE",
"463 123 LINE"
);
},
{
closed = 1;
nodes = (
"195 445 OFFCURVE",
"195 271 OFFCURVE",
"195 173 CURVE",
"30 173 LINE",
"30 543 LINE",
"195 543 LINE",
"195 543 LINE"
);
},
{
closed = 1;
nodes = (
"299 543 LINE",
"463 543 LINE",
"463 173 LINE",
"299 173 LINE",
"299 272 OFFCURVE",
"300 444 OFFCURVE",
"299 543 CURVE"
);
},
{
closed = 1;
nodes = (
"299 593 LINE",
"299 593 OFFCURVE",
"299 593 OFFCURVE",
"299 593 CURVE",
"299 615 OFFCURVE",
"265 638 OFFCURVE",
"247 638 CURVE",
"229 638 OFFCURVE",
"195 617 OFFCURVE",
"195 593 CURVE",
"195 593 LINE",
"30 593 LINE",
"30 698 LINE",
"463 698 LINE",
"463 593 LINE",
"463 593 LINE"
);
}
);
width = 493;
}
);
unicode = 004B;
},
{
glyphname = L;
lastChange = "2020-12-22 21:17:33 +0000";
layers = (
{
layerId = "9D2CFCBA-A91A-4722-94B4-AF0C172E062A";
paths = (
{
closed = 1;
nodes = (
"351 698 LINE",
"463 698 LINE",
"463 1 LINE",
"318 1 LINE",
"318 1 OFFCURVE",
"318 1 OFFCURVE",
"318 2 CURVE",
"318 47 OFFCURVE",
"287 84 OFFCURVE",
"248 84 CURVE",
"209 84 OFFCURVE",
"178 47 OFFCURVE",
"178 2 CURVE",
"178 1 OFFCURVE",
"178 1 OFFCURVE",
"178 1 CURVE",
"30 1 LINE",
"30 698 LINE",
"142 698 LINE",
"142 618 OFFCURVE",
"142 370 OFFCURVE",
"142 290 CURVE",
"142 240 OFFCURVE",
"214 193 OFFCURVE",
"248 193 CURVE",
"282 193 OFFCURVE",
"351 240 OFFCURVE",
"351 290 CURVE",
"352 370 OFFCURVE",
"351 618 OFFCURVE",
"351 698 CURVE"
);
},
{
closed = 1;
nodes = (
"294 618 OFFCURVE",
"295 380 OFFCURVE",
"295 320 CURVE",
"295 301 OFFCURVE",
"264 282 OFFCURVE",
"248 282 CURVE",
"232 282 OFFCURVE",
"199 301 OFFCURVE",
"199 321 CURVE",
"199 381 OFFCURVE",
"199 618 OFFCURVE",
"199 698 CURVE",
"294 698 LINE",
"294 698 LINE"
);
}
);
width = 493;
}
);
unicode = 004C;
},
{
glyphname = M;
lastChange = "2020-12-22 21:21:15 +0000";
layers = (
{
layerId = "9D2CFCBA-A91A-4722-94B4-AF0C172E062A";
paths = (
{
closed = 1;
nodes = (
"325 598 OFFCURVE",
"325 332 OFFCURVE",
"325 272 CURVE",
"325 257 OFFCURVE",
"341 248 OFFCURVE",
"349 248 CURVE",
"356 248 OFFCURVE",
"372 257 OFFCURVE",
"372 272 CURVE",
"372 332 OFFCURVE",
"372 598 OFFCURVE",
"372 698 CURVE",
"463 698 LINE",
"463 1 LINE",
"30 1 LINE",
"30 698 LINE",
"125 698 LINE",
"125 598 OFFCURVE",
"125 265 OFFCURVE",
"125 182 CURVE",
"125 167 OFFCURVE",
"133 151 OFFCURVE",
"144 142 CURVE",
"154 133 OFFCURVE",
"172 128 OFFCURVE",
"185 128 CURVE",
"221 127 OFFCURVE",
"336 127 OFFCURVE",
"368 128 CURVE",
"378 128 OFFCURVE",
"380 143 OFFCURVE",
"380 153 CURVE",
"380 163 OFFCURVE",
"377 179 OFFCURVE",
"368 179 CURVE",
"339 180 OFFCURVE",
"236 179 OFFCURVE",
"206 179 CURVE",
"199 179 OFFCURVE",
"190 189 OFFCURVE",
"186 196 CURVE",
"181 203 OFFCURVE",
"182 213 OFFCURVE",
"182 221 CURVE",
"183 295 OFFCURVE",
"182 598 OFFCURVE",
"182 698 CURVE",
"325 698 LINE",
"325 698 LINE"
);
}
);
width = 493;
}
);
unicode = 004D;
},
{
glyphname = N;
lastChange = "2020-12-22 21:25:22 +0000";
layers = (
{
layerId = "9D2CFCBA-A91A-4722-94B4-AF0C172E062A";
paths = (
{
closed = 1;
nodes = (
"324 646 OFFCURVE",
"325 538 OFFCURVE",
"325 505 CURVE",
"325 494 OFFCURVE",
"344 486 OFFCURVE",
"353 486 CURVE",
"362 486 OFFCURVE",
"378 494 OFFCURVE",
"378 504 CURVE",
"379 535 OFFCURVE",
"379 644 OFFCURVE",
"379 698 CURVE",
"463 698 LINE",
"463 1 LINE",
"382 1 LINE",
"382 61 OFFCURVE",
"383 171 OFFCURVE",
"382 204 CURVE",
"382 215 OFFCURVE",
"379 228 OFFCURVE",
"374 237 CURVE",
"366 257 OFFCURVE",
"189 407 OFFCURVE",
"176 428 CURVE",
"171 435 OFFCURVE",
"162 452 OFFCURVE",
"162 460 CURVE",
"162 498 OFFCURVE",
"162 636 OFFCURVE",
"162 698 CURVE",
"324 698 LINE",
"324 698 LINE"
);
},
{
closed = 1;
nodes = (
"112 632 OFFCURVE",
"112 481 OFFCURVE",
"112 439 CURVE",
"112 428 OFFCURVE",
"119 415 OFFCURVE",
"124 405 CURVE",
"130 392 OFFCURVE",
"120 404 OFFCURVE",
"322 215 CURVE",
"328 207 OFFCURVE",
"332 190 OFFCURVE",
"332 182 CURVE",
"332 154 OFFCURVE",
"332 61 OFFCURVE",
"332 1 CURVE",
"177 1 LINE",
"177 61 OFFCURVE",
"175 143 OFFCURVE",
"175 173 CURVE",
"175 183 OFFCURVE",
"158 192 OFFCURVE",
"148 192 CURVE",
"138 192 OFFCURVE",
"121 183 OFFCURVE",
"121 173 CURVE",
"121 143 OFFCURVE",
"122 61 OFFCURVE",
"122 1 CURVE",
"30 1 LINE",
"30 698 LINE",
"112 698 LINE",
"112 698 LINE"
);
}
);
width = 493;
}
);
unicode = 004E;
},
{
glyphname = O;
lastChange = "2020-12-22 21:33:32 +0000";
layers = (
{
layerId = "9D2CFCBA-A91A-4722-94B4-AF0C172E062A";
paths = (
{
closed = 1;
nodes = (
"278 520 LINE",
"278 520 OFFCURVE",
"121 500 OFFCURVE",
"122 350 CURVE",
"122 200 OFFCURVE",
"282 172 OFFCURVE",
"282 172 CURVE",
"282 1 LINE",
"30 1 LINE",
"30 698 LINE",
"278 698 LINE",
"278 698 LINE"
);
},
{
closed = 1;
nodes = (
"334 698 LINE",
"463 698 LINE",
"463 1 LINE",
"334 1 LINE",
"334 46 OFFCURVE",
"334 147 OFFCURVE",
"334 172 CURVE",
"333 196 OFFCURVE",
"335 221 OFFCURVE",
"305 221 CURVE",
"275 221 OFFCURVE",
"163 250 OFFCURVE",
"163 350 CURVE",
"163 450 OFFCURVE",
"275 480 OFFCURVE",
"305 480 CURVE",
"335 480 OFFCURVE",
"334 510 OFFCURVE",
"334 520 CURVE",
"334 549 OFFCURVE",
"335 651 OFFCURVE",
"334 698 CURVE"
);
}
);
width = 493;
}
);
unicode = 004F;
},
{
glyphname = P;
lastChange = "2020-12-22 21:37:04 +0000";
layers = (
{
layerId = "9D2CFCBA-A91A-4722-94B4-AF0C172E062A";
paths = (
{
closed = 1;
nodes = (
"224 1 LINE",
"30 1 LINE",
"30 313 LINE",
"114 313 LINE",
"114 313 OFFCURVE",
"133 502 OFFCURVE",
"253 506 CURVE",
"373 506 OFFCURVE",
"380 313 OFFCURVE",
"380 313 CURVE",
"463 313 LINE",
"463 1 LINE",
"283 1 LINE",
"283 81 OFFCURVE",
"282 327 OFFCURVE",
"281 387 CURVE",
"281 397 OFFCURVE",
"263 403 OFFCURVE",
"253 403 CURVE",
"244 403 OFFCURVE",
"223 397 OFFCURVE",
"223 387 CURVE",
"223 327 OFFCURVE",
"224 81 OFFCURVE",
"224 1 CURVE"
);
},
{
closed = 1;
nodes = (
"224 628 OFFCURVE",
"224 574 OFFCURVE",
"224 544 CURVE",
"106 520 OFFCURVE",
"91 364 OFFCURVE",
"91 360 CURVE",
"30 360 LINE",
"30 698 LINE",
"224 698 LINE",
"224 698 LINE"
);
},
{
closed = 1;
nodes = (
"425 360 LINE",
"425 360 OFFCURVE",
"399 521 OFFCURVE",
"283 544 CURVE",
"283 574 OFFCURVE",
"283 628 OFFCURVE",
"283 698 CURVE",
"463 698 LINE",
"463 360 LINE",
"463 360 LINE"
);
}
);
width = 493;
}
);
unicode = 0050;
},
{
glyphname = Q;
lastChange = "2020-12-22 21:37:35 +0000";
layers = (
{
layerId = "9D2CFCBA-A91A-4722-94B4-AF0C172E062A";
paths = (
{
closed = 1;
nodes = (
"269 698 LINE",
"463 698 LINE",
"463 386 LINE",
"379 386 LINE",
"379 386 OFFCURVE",
"360 197 OFFCURVE",
"240 193 CURVE",
"120 193 OFFCURVE",
"113 386 OFFCURVE",
"113 386 CURVE",
"30 386 LINE",
"30 698 LINE",
"210 698 LINE",
"210 618 OFFCURVE",
"211 372 OFFCURVE",
"212 312 CURVE",
"212 302 OFFCURVE",
"230 296 OFFCURVE",
"240 296 CURVE",
"249 296 OFFCURVE",
"270 302 OFFCURVE",
"270 312 CURVE",
"270 372 OFFCURVE",
"269 618 OFFCURVE",
"269 698 CURVE"
);
},
{
closed = 1;
nodes = (
"269 71 OFFCURVE",
"269 125 OFFCURVE",
"269 155 CURVE",
"387 179 OFFCURVE",
"402 335 OFFCURVE",
"402 339 CURVE",
"463 339 LINE",
"463 1 LINE",
"269 1 LINE",
"269 1 LINE"
);
},
{
closed = 1;
nodes = (
"68 339 LINE",
"68 339 OFFCURVE",
"94 178 OFFCURVE",
"210 155 CURVE",
"210 125 OFFCURVE",
"210 71 OFFCURVE",
"210 1 CURVE",
"30 1 LINE",
"30 339 LINE",
"30 339 LINE"
);
}
);
width = 493;
}
);
unicode = 0051;
},
{
glyphname = R;
lastChange = "2020-12-22 21:40:49 +0000";
layers = (
{
layerId = "9D2CFCBA-A91A-4722-94B4-AF0C172E062A";
paths = (
{
closed = 1;
nodes = (
"30 698 LINE",
"30 1 LINE",
"463 1 LINE",
"463 698 LINE",
"463 698 LINE"
);
},
{
closed = 1;
nodes = (
"124 635 OFFCURVE",
"313 635 OFFCURVE",
"355 635 CURVE",
"373 634 OFFCURVE",
"388 611 OFFCURVE",
"388 593 CURVE",
"389 507 OFFCURVE",
"388 202 OFFCURVE",
"388 116 CURVE",
"388 98 OFFCURVE",
"382 67 OFFCURVE",
"363 67 CURVE",
"325 66 OFFCURVE",
"196 67 OFFCURVE",
"155 67 CURVE",
"132 67 OFFCURVE",
"111 96 OFFCURVE",
"110 119 CURVE",
"109 158 OFFCURVE",
"110 270 OFFCURVE",
"110 295 CURVE",
"110 309 OFFCURVE",
"128 325 OFFCURVE",
"143 325 CURVE",
"174 326 OFFCURVE",
"265 324 OFFCURVE",
"300 325 CURVE",
"326 326 OFFCURVE",
"347 363 OFFCURVE",
"347 390 CURVE",
"348 428 OFFCURVE",
"348 518 OFFCURVE",
"347 551 CURVE",
"347 570 OFFCURVE",
"329 596 OFFCURVE",
"310 596 CURVE",
"271 596 OFFCURVE",
"124 596 OFFCURVE",
"124 596 CURVE",
"124 635 LINE",
"124 635 LINE"
);
}
);
width = 493;
}
);
unicode = 0052;
},
{
glyphname = S;
lastChange = "2020-12-22 21:41:14 +0000";
layers = (
{
layerId = "9D2CFCBA-A91A-4722-94B4-AF0C172E062A";
paths = (
{
closed = 1;
nodes = (
"463 1 LINE",
"463 698 LINE",
"30 698 LINE",
"30 1 LINE",
"30 1 LINE"
);
},
{
closed = 1;
nodes = (
"369 64 OFFCURVE",
"180 64 OFFCURVE",
"138 64 CURVE",
"120 65 OFFCURVE",
"105 88 OFFCURVE",
"105 106 CURVE",
"104 192 OFFCURVE",
"105 497 OFFCURVE",
"105 583 CURVE",
"105 601 OFFCURVE",
"111 632 OFFCURVE",
"130 632 CURVE",
"168 633 OFFCURVE",
"297 632 OFFCURVE",
"338 632 CURVE",
"361 632 OFFCURVE",
"382 603 OFFCURVE",
"383 580 CURVE",
"384 541 OFFCURVE",
"383 429 OFFCURVE",
"383 404 CURVE",
"383 390 OFFCURVE",
"365 374 OFFCURVE",
"350 374 CURVE",
"319 373 OFFCURVE",
"228 375 OFFCURVE",
"193 374 CURVE",
"167 373 OFFCURVE",
"146 336 OFFCURVE",
"146 309 CURVE",
"145 271 OFFCURVE",
"145 181 OFFCURVE",
"146 148 CURVE",
"146 129 OFFCURVE",
"164 103 OFFCURVE",
"183 103 CURVE",
"222 103 OFFCURVE",
"369 103 OFFCURVE",
"369 103 CURVE",
"369 64 LINE",
"369 64 LINE"
);
}
);
width = 493;
}
);
unicode = 0053;
},
{
glyphname = a;
lastChange = "2020-12-24 23:20:17 +0000";
layers = (
{
layerId = "9D2CFCBA-A91A-4722-94B4-AF0C172E062A";
paths = (
{
closed = 1;
nodes = (
"326 697 LINE",
"326 485 LINE",
"60 485 LINE",
"60 697 LINE"
);
},
{
closed = 1;
nodes = (
"462 421 LINE",
"462 1 LINE",
"311 1 LINE",
"311 421 LINE"
);
},
{
closed = 1;
nodes = (
"328 421 LINE",
"328 183 LINE",
"165 183 LINE",
"165 421 LINE"
);
},
{
closed = 1;
nodes = (
"193 273 LINE",
"193 1 LINE",
"30 1 LINE",
"30 273 LINE"
);
}
);
width = 492;
}
);
unicode = 0061;
},
{
glyphname = b;
lastChange = "2020-12-24 23:21:23 +0000";
layers = (
{
layerId = "9D2CFCBA-A91A-4722-94B4-AF0C172E062A";
paths = (
{
closed = 1;
nodes = (
"347 425 LINE",
"347 213 LINE",
"145 213 LINE",
"145 425 LINE"
);
},
{
closed = 1;
nodes = (
"462 697 LINE",
"462 460 LINE",
"30 460 LINE",
"30 697 LINE"
);
},
{
closed = 1;
nodes = (
"461 275 LINE",
"461 1 LINE",
"319 1 LINE",
"319 275 LINE"
);
},
{
closed = 1;
nodes = (
"178 275 LINE",
"178 1 LINE",
"33 1 LINE",
"33 275 LINE"
);
}
);
width = 492;
}
);
unicode = 0062;
},
{
glyphname = c;
lastChange = "2020-12-24 23:21:15 +0000";
layers = (
{
layerId = "9D2CFCBA-A91A-4722-94B4-AF0C172E062A";
paths = (
{
closed = 1;
nodes = (
"462 213 LINE",
"462 1 LINE",
"30 1 LINE",
"30 213 LINE"
);
},
{
closed = 1;
nodes = (
"336 495 LINE",
"336 258 LINE",
"150 258 LINE",
"150 495 LINE"
);
},
{
closed = 1;
nodes = (
"194 698 LINE",
"194 426 LINE",
"30 426 LINE",
"30 698 LINE"
);
},
{
closed = 1;
nodes = (
"463 698 LINE",
"463 426 LINE",
"299 426 LINE",
"299 698 LINE"
);
}
);
width = 493;
}
);
unicode = 0063;
},
{
glyphname = d;
lastChange = "2020-12-24 23:21:43 +0000";
layers = (
{
layerId = "9D2CFCBA-A91A-4722-94B4-AF0C172E062A";
paths = (
{
closed = 1;
nodes = (
"187 541 LINE",
"187 273 LINE",
"30 273 LINE",
"30 541 LINE"
);
},
{
closed = 1;
nodes = (
"354 699 LINE",
"354 455 LINE",
"131 455 LINE",
"131 699 LINE"
);
},
{
closed = 1;
nodes = (
"462 541 LINE",
"462 273 LINE",
"293 273 LINE",
"293 541 LINE"
);
},
{
closed = 1;
nodes = (
"462 214 LINE",
"462 1 LINE",
"30 1 LINE",
"30 214 LINE"
);
}
);
width = 492;
}
);
unicode = 0064;
},
{
glyphname = e;
lastChange = "2020-12-24 23:21:58 +0000";
layers = (
{
layerId = "9D2CFCBA-A91A-4722-94B4-AF0C172E062A";
paths = (
{
closed = 1;
nodes = (
"345 485 LINE",
"345 275 LINE",
"30 275 LINE",
"30 485 LINE"
);
},
{
closed = 1;
nodes = (
"172 697 LINE",
"172 286 LINE",
"30 286 LINE",
"30 697 LINE"
);
},
{
closed = 1;
nodes = (
"462 697 LINE",
"462 426 LINE",
"299 426 LINE",
"299 697 LINE"
);
},
{
closed = 1;
nodes = (
"457 211 LINE",
"457 1 LINE",
"171 1 LINE",
"171 211 LINE"
);
}
);
width = 492;
}
);
unicode = 0065;
},
{
glyphname = f;
lastChange = "2020-12-24 23:22:13 +0000";
layers = (
{
layerId = "9D2CFCBA-A91A-4722-94B4-AF0C172E062A";
paths = (
{
closed = 1;
nodes = (
"462 700 LINE",
"462 419 LINE",
"354 419 LINE",
"354 257 LINE",
"462 257 LINE",
"462 1 LINE",
"301 1 LINE",
"301 179 LINE",
"192 179 LINE",
"192 1 LINE",
"30 1 LINE",
"30 257 LINE",
"139 257 LINE",
"139 419 LINE",
"30 419 LINE",
"30 700 LINE",
"192 700 LINE",
"192 480 LINE",
"301 480 LINE",
"301 700 LINE",
"301 700 LINE"
);
},
{
closed = 1;
nodes = (
"462 452 LINE",
"462 206 LINE",
"322 206 LINE",
"322 452 LINE"
);
}
);
width = 492;
}
);
unicode = 0066;
},
{
glyphname = g;
lastChange = "2020-12-24 23:22:32 +0000";
layers = (
{
layerId = "9D2CFCBA-A91A-4722-94B4-AF0C172E062A";
paths = (
{
closed = 1;
nodes = (
"462 699 LINE",
"462 419 LINE",
"354 419 LINE",
"354 257 LINE",
"462 257 LINE",
"462 1 LINE",
"301 1 LINE",
"301 179 LINE",
"192 179 LINE",
"192 1 LINE",
"30 1 LINE",
"30 257 LINE",
"139 257 LINE",
"139 419 LINE",
"30 419 LINE",
"30 699 LINE",
"192 699 LINE",
"192 480 LINE",
"301 480 LINE",
"301 699 LINE",
"301 699 LINE"
);
}
);
width = 492;
}
);
unicode = 0067;
},
{
glyphname = h;
lastChange = "2020-12-24 23:22:47 +0000";
layers = (
{
layerId = "9D2CFCBA-A91A-4722-94B4-AF0C172E062A";
paths = (
{
closed = 1;
nodes = (
"462 699 LINE",
"462 423 LINE",
"354 423 LINE",
"354 261 LINE",
"462 261 LINE",
"462 5 LINE",
"301 5 LINE",
"301 183 LINE",
"192 183 LINE",
"192 5 LINE",
"30 5 LINE",
"30 261 LINE",
"139 261 LINE",
"139 423 LINE",
"30 423 LINE",
"30 699 LINE",
"192 699 LINE",
"192 484 LINE",
"301 484 LINE",
"301 700 LINE",
"301 700 LINE"
);
},
{
closed = 1;
nodes = (
"171 467 LINE",
"171 221 LINE",
"30 221 LINE",
"30 467 LINE"
);
}
);
width = 492;
}
);
unicode = 0068;
},
{
glyphname = i;
lastChange = "2020-12-24 23:23:00 +0000";
layers = (
{
layerId = "9D2CFCBA-A91A-4722-94B4-AF0C172E062A";
paths = (
{
closed = 1;
nodes = (
"462 549 LINE",
"462 156 LINE",
"336 156 LINE",
"336 2 LINE",
"156 2 LINE",
"156 156 LINE",
"30 156 LINE",
"30 549 LINE",
"156 549 LINE",
"156 699 LINE",
"336 699 LINE",
"336 549 LINE",
"336 549 LINE"
);
},
{
closed = 1;
nodes = (
"175 461 LINE",
"175 215 LINE",
"314 215 LINE",
"314 461 LINE",
"314 461 LINE"
);
}
);
width = 492;
}
);
unicode = 0069;
},
{
glyphname = j;
lastChange = "2020-12-24 23:23:15 +0000";
layers = (
{
layerId = "9D2CFCBA-A91A-4722-94B4-AF0C172E062A";
paths = (
{
closed = 1;
nodes = (
"462 690 LINE",
"462 419 LINE",
"354 419 LINE",
"354 257 LINE",
"462 257 LINE",
"462 1 LINE",
"301 1 LINE",
"301 179 LINE",
"192 179 LINE",
"192 1 LINE",
"30 1 LINE",
"30 257 LINE",
"139 257 LINE",
"139 419 LINE",
"30 419 LINE",
"30 690 LINE",
"192 690 LINE",
"192 480 LINE",
"301 480 LINE",
"301 690 LINE",
"301 690 LINE"
);
},
{
closed = 1;
nodes = (
"171 463 LINE",
"171 217 LINE",
"30 217 LINE",
"30 463 LINE"
);
},
{
closed = 1;
nodes = (
"462 457 LINE",
"462 211 LINE",
"308 211 LINE",
"308 457 LINE"
);
}
);
width = 492;
}
);
unicode = 006A;
},
{
glyphname = k;
lastChange = "2020-12-24 23:23:41 +0000";
layers = (
{
layerId = "9D2CFCBA-A91A-4722-94B4-AF0C172E062A";
paths = (
{
closed = 1;
nodes = (
"30 1 LINE",
"30 694 LINE",
"182 694 LINE",
"182 583 LINE",
"310 583 LINE",
"310 694 LINE",
"462 694 LINE",
"462 1 LINE",
"310 1 LINE",
"310 115 LINE",
"182 115 LINE",
"182 1 LINE",
"182 1 LINE"
);
},
{
closed = 1;
nodes = (
"182 452 LINE",
"182 242 LINE",
"310 242 LINE",
"310 452 LINE",
"310 452 LINE"
);
}
);
width = 492;
}
);
unicode = 006B;
},
{
glyphname = l;
lastChange = "2020-12-24 23:24:06 +0000";
layers = (
{
layerId = "9D2CFCBA-A91A-4722-94B4-AF0C172E062A";
paths = (
{
closed = 1;
nodes = (
"308 574 LINE",
"308 485 LINE",
"460 485 LINE",
"460 213 LINE",
"308 213 LINE",
"308 121 LINE",
"460 121 LINE",
"460 1 LINE",
"335 1 LINE",
"335 61 LINE",
"155 61 LINE",
"155 1 LINE",
"30 1 LINE",
"30 121 LINE",
"182 121 LINE",
"182 213 LINE",
"30 213 LINE",
"30 485 LINE",
"182 485 LINE",
"182 574 LINE",
"30 574 LINE",
"30 696 LINE",
"155 696 LINE",
"155 640 LINE",
"335 640 LINE",
"335 696 LINE",
"460 696 LINE",
"460 574 LINE",
"462 574 LINE"
);
},
{
closed = 1;
nodes = (
"155 392 LINE",
"155 273 LINE",
"349 273 LINE",
"349 392 LINE",
"349 392 LINE"
);
}
);
width = 492;
}
);
unicode = 006C;
},
{
glyphname = m;
lastChange = "2020-12-24 23:24:46 +0000";
layers = (
{
layerId = "9D2CFCBA-A91A-4722-94B4-AF0C172E062A";
paths = (
{
closed = 1;
nodes = (
"462 697 LINE",
"462 1 LINE",
"293 1 LINE",
"293 697 LINE"
);
},
{
closed = 1;
nodes = (
"198 697 LINE",
"198 1 LINE",
"30 1 LINE",
"30 697 LINE"
);
}
);
width = 492;
}
);
unicode = 006D;
},
{
glyphname = n;
lastChange = "2020-12-24 23:25:00 +0000";
layers = (
{
layerId = "9D2CFCBA-A91A-4722-94B4-AF0C172E062A";
paths = (
{
closed = 1;
nodes = (
"302 31 LINE",
"168 31 LINE",
"168 1 LINE",
"30 1 LINE",
"30 215 LINE",
"168 215 LINE",
"168 158 LINE",
"328 158 LINE",
"328 215 LINE",
"462 215 LINE",
"462 1 LINE",
"328 1 LINE",
"328 31 LINE",
"302 31 LINE",
"302 31 LINE"
);
},
{
closed = 1;
nodes = (
"168 274 LINE",
"30 274 LINE",
"30 428 LINE",
"168 428 LINE",
"168 428 LINE"
);
},
{
closed = 1;
nodes = (
"462 428 LINE",
"462 274 LINE",
"328 274 LINE",
"328 428 LINE",
"328 428 LINE"
);
},
{
closed = 1;
nodes = (
"462 697 LINE",
"462 486 LINE",
"328 486 LINE",
"328 518 LINE",
"168 518 LINE",
"168 486 LINE",
"30 486 LINE",
"30 697 LINE",
"168 697 LINE",
"168 641 LINE",
"293 641 LINE",
"293 641 LINE",
"328 641 LINE",
"328 697 LINE",
"328 697 LINE"
);
}
);
width = 492;
}
);
unicode = 006E;
},
{
glyphname = o;
lastChange = "2020-12-24 23:25:16 +0000";
layers = (
{
layerId = "9D2CFCBA-A91A-4722-94B4-AF0C172E062A";
paths = (
{
closed = 1;
nodes = (
"171 158 LINE",
"330 158 LINE",
"330 215 LINE",
"462 215 LINE",
"462 1 LINE",
"30 1 LINE",
"30 215 LINE",
"171 215 LINE",
"171 215 LINE"
);
},
{
closed = 1;
nodes = (
"330 274 LINE",
"330 428 LINE",
"462 428 LINE",
"462 274 LINE",
"462 274 LINE"
);
},
{
closed = 1;
nodes = (
"330 486 LINE",
"330 518 LINE",
"171 518 LINE",
"171 486 LINE",
"30 486 LINE",
"30 697 LINE",
"462 697 LINE",
"462 486 LINE",
"462 486 LINE"
);
}
);
width = 492;
}
);
unicode = 006F;
},
{
glyphname = p;
lastChange = "2020-12-24 23:25:39 +0000";
layers = (
{
layerId = "9D2CFCBA-A91A-4722-94B4-AF0C172E062A";
paths = (
{
closed = 1;
nodes = (
"322 158 LINE",
"163 158 LINE",
"163 215 LINE",
"30 215 LINE",
"30 1 LINE",
"462 1 LINE",
"462 215 LINE",
"322 215 LINE",
"322 215 LINE"
);
},
{
closed = 1;
nodes = (
"163 274 LINE",
"163 428 LINE",
"30 428 LINE",
"30 274 LINE",
"30 274 LINE"
);
},
{
closed = 1;
nodes = (
"163 486 LINE",
"163 518 LINE",
"322 518 LINE",
"322 486 LINE",
"462 486 LINE",
"462 697 LINE",
"30 697 LINE",
"30 486 LINE",
"30 486 LINE"
);
}
);
width = 492;
}
);
unicode = 0070;
},
{
glyphname = q;
lastChange = "2020-12-24 23:25:57 +0000";
layers = (
{
layerId = "9D2CFCBA-A91A-4722-94B4-AF0C172E062A";
paths = (
{
closed = 1;
nodes = (
"462 697 LINE",
"462 1 LINE",
"298 1 LINE",
"298 697 LINE"
);
},
{
closed = 1;
nodes = (
"194 273 LINE",
"194 1 LINE",
"30 1 LINE",
"30 273 LINE"
);
},
{
closed = 1;
nodes = (
"307 484 LINE",
"307 211 LINE",
"144 211 LINE",
"144 484 LINE"
);
}
);
width = 492;
}
);
unicode = 0071;
},
{
glyphname = r;
lastChange = "2020-12-24 23:26:13 +0000";
layers = (
{
layerId = "9D2CFCBA-A91A-4722-94B4-AF0C172E062A";
paths = (
{
closed = 1;
nodes = (
"462 697 LINE",
"462 426 LINE",
"298 426 LINE",
"298 697 LINE"
);
},
{
closed = 1;
nodes = (
"462 270 LINE",
"462 1 LINE",
"298 1 LINE",
"298 270 LINE"
);
},
{
closed = 1;
nodes = (
"194 273 LINE",
"194 1 LINE",
"30 1 LINE",
"30 273 LINE"
);
},
{
closed = 1;
nodes = (
"307 484 LINE",
"307 211 LINE",
"144 211 LINE",
"144 484 LINE"
);
}
);
width = 492;
}
);
unicode = 0072;
},
{
glyphname = s;
lastChange = "2020-12-24 23:26:29 +0000";
layers = (
{
layerId = "9D2CFCBA-A91A-4722-94B4-AF0C172E062A";
paths = (
{
closed = 1;
nodes = (
"356 438 LINE",
"356 252 LINE",
"462 252 LINE",
"462 1 LINE",
"331 1 LINE",
"331 189 LINE",
"30 189 LINE",
"30 690 LINE",
"193 690 LINE",
"193 497 LINE",
"330 497 LINE",
"330 690 LINE",
"462 690 LINE",
"462 438 LINE",
"462 438 LINE"
);
}
);
width = 492;
}
);
unicode = 0073;
},
{
glyphname = t;
lastChange = "2020-12-24 23:26:45 +0000";
layers = (
{
layerId = "9D2CFCBA-A91A-4722-94B4-AF0C172E062A";
paths = (
{
closed = 1;
nodes = (
"169 194 LINE",
"169 1 LINE",
"30 1 LINE",
"30 700 LINE",
"171 700 LINE",
"171 496 LINE",
"462 496 LINE",
"462 1 LINE",
"306 1 LINE",
"306 194 LINE",
"251 194 LINE",
"251 373 LINE",
"169 373 LINE",
"169 194 LINE",
"169 194 LINE"
);
}
);
width = 492;
}
);
unicode = 0074;
},
{
glyphname = u;
lastChange = "2020-12-24 23:32:34 +0000";
layers = (
{
layerId = "9D2CFCBA-A91A-4722-94B4-AF0C172E062A";
paths = (
{
closed = 1;
nodes = (
"320 500 LINE",
"320 690 LINE",
"462 690 LINE",
"462 1 LINE",
"319 1 LINE",
"319 203 LINE",
"30 203 LINE",
"30 690 LINE",
"185 690 LINE",
"185 500 LINE",
"239 500 LINE",
"239 324 LINE",
"320 324 LINE",
"320 500 LINE",
"320 500 LINE"
);
}
);
width = 492;
}
);
unicode = 0075;
},
{
glyphname = v;
lastChange = "2020-12-24 23:32:50 +0000";
layers = (
{
layerId = "9D2CFCBA-A91A-4722-94B4-AF0C172E062A";
paths = (
{
closed = 1;
nodes = (
"136 254 LINE",
"136 438 LINE",
"30 438 LINE",
"30 690 LINE",
"163 690 LINE",
"163 503 LINE",
"462 503 LINE",
"462 1 LINE",
"297 1 LINE",
"297 192 LINE",
"163 192 LINE",
"163 1 LINE",
"30 1 LINE",
"30 254 LINE",
"30 254 LINE"
);
}
);
width = 492;
}
);
unicode = 0076;
},
{
glyphname = w;
lastChange = "2020-12-24 23:33:32 +0000";
layers = (
{
layerId = "9D2CFCBA-A91A-4722-94B4-AF0C172E062A";
paths = (
{
closed = 1;
nodes = (
"30 1 LINE",
"30 272 LINE",
"195 271 LINE",
"194 1 LINE"
);
},
{
closed = 1;
nodes = (
"30 428 LINE",
"30 697 LINE",
"195 697 LINE",
"195 428 LINE"
);
},
{
closed = 1;
nodes = (
"298 424 LINE",
"298 697 LINE",
"462 697 LINE",
"461 424 LINE"
);
},
{
closed = 1;
nodes = (
"185 214 LINE",
"185 486 LINE",
"349 486 LINE",
"349 214 LINE"
);
}
);
width = 492;
}
);
unicode = 0077;
},
{
glyphname = x;
lastChange = "2020-12-24 23:33:48 +0000";
layers = (
{
layerId = "9D2CFCBA-A91A-4722-94B4-AF0C172E062A";
paths = (
{
closed = 1;
nodes = (
"173 204 LINE",
"173 1 LINE",
"30 1 LINE",
"30 695 LINE",
"171 695 LINE",
"171 504 LINE",
"171 504 LINE",
"171 325 LINE",
"251 325 LINE",
"251 504 LINE",
"305 504 LINE",
"305 695 LINE",
"462 695 LINE",
"462 427 LINE",
"357 427 LINE",
"357 204 LINE",
"357 204 LINE"
);
}
);
width = 492;
}
);
unicode = 0078;
},
{
glyphname = "a-hira";
lastChange = "2020-12-24 22:11:11 +0000";
layers = (
{
layerId = "9D2CFCBA-A91A-4722-94B4-AF0C172E062A";
paths = (
{
closed = 1;
nodes = (
"463 408 LINE",
"463 1 LINE",
"310 1 LINE",
"310 237 LINE",
"198 328 LINE",
"198 1 LINE",
"30 1 LINE",
"30 698 LINE",
"339 698 LINE",
"339 513 LINE",
"339 513 LINE"
);
}
);
width = 493;
}
);
unicode = 3042;
},
{
glyphname = "i-hira";
lastChange = "2020-12-24 22:12:44 +0000";
layers = (
{
layerId = "9D2CFCBA-A91A-4722-94B4-AF0C172E062A";
paths = (
{
closed = 1;
nodes = (
"271 251 LINE",
"271 518 LINE",
"214 518 LINE",
"214 163 LINE",
"463 163 LINE",
"463 1 LINE",
"30 1 LINE",
"30 698 LINE",
"463 698 LINE",
"463 251 LINE",
"463 251 LINE"
);
}
);
width = 493;
}
);
unicode = 3044;
},
{
glyphname = "u-hira";
lastChange = "2020-12-24 22:14:16 +0000";
layers = (
{
layerId = "9D2CFCBA-A91A-4722-94B4-AF0C172E062A";
paths = (
{
closed = 1;
nodes = (
"463 1 LINE",
"30 1 LINE",
"30 192 LINE",
"333 192 LINE",
"333 278 LINE",
"303 278 LINE",
"303 430 LINE",
"463 430 LINE",
"463 430 LINE"
);
},
{
closed = 1;
nodes = (
"190 515 LINE",
"190 430 LINE",
"220 430 LINE",
"220 278 LINE",
"30 278 LINE",
"30 698 LINE",
"463 698 LINE",
"463 515 LINE",
"463 515 LINE"
);
}
);
width = 493;
}
);
unicode = 3046;
},
{
glyphname = "e-hira";
lastChange = "2020-12-24 22:16:41 +0000";
layers = (
{
layerId = "9D2CFCBA-A91A-4722-94B4-AF0C172E062A";
paths = (
{
closed = 1;
nodes = (
"30 1 LINE",
"30 698 LINE",
"463 698 LINE",
"463 1 LINE",
"273 1 LINE",
"273 157 LINE",
"303 157 LINE",
"303 514 LINE",
"190 514 LINE",
"190 157 LINE",
"220 157 LINE",
"220 1 LINE",
"220 1 LINE"
);
}
);
width = 493;
}
);
unicode = 3048;
},
{
glyphname = "o-hira";
lastChange = "2020-12-24 22:21:49 +0000";
layers = (
{
layerId = "9D2CFCBA-A91A-4722-94B4-AF0C172E062A";
paths = (
{
closed = 1;
nodes = (
"463 1 LINE",
"30 1 LINE",
"30 310 LINE",
"205 310 LINE",
"205 216 LINE",
"288 216 LINE",
"288 310 LINE",
"463 310 LINE",
"463 310 LINE"
);
},
{
closed = 1;
nodes = (
"288 368 LINE",
"288 453 LINE",
"205 453 LINE",
"205 368 LINE",
"30 368 LINE",
"30 698 LINE",
"463 698 LINE",
"463 368 LINE",
"463 368 LINE"
);
}
);
width = 493;
}
);
unicode = 304A;
},
{
glyphname = "ka-hira";
lastChange = "2020-12-24 22:26:07 +0000";
layers = (
{
layerId = "9D2CFCBA-A91A-4722-94B4-AF0C172E062A";
paths = (
{
closed = 1;
nodes = (
"442 410 OFFCURVE",
"424 382 OFFCURVE",
"424 348 CURVE",
"424 314 OFFCURVE",
"442 287 OFFCURVE",
"463 286 CURVE",
"463 1 LINE",
"286 1 LINE",
"286 50 OFFCURVE",
"284 141 OFFCURVE",
"284 171 CURVE",
"284 186 OFFCURVE",
"258 196 OFFCURVE",
"245 196 CURVE",
"233 196 OFFCURVE",
"210 185 OFFCURVE",
"210 170 CURVE",
"210 140 OFFCURVE",
"210 50 OFFCURVE",
"210 1 CURVE",
"30 1 LINE",
"30 286 LINE",
"52 286 OFFCURVE",
"69 314 OFFCURVE",
"69 348 CURVE",
"69 382 OFFCURVE",
"52 410 OFFCURVE",
"30 410 CURVE",
"30 698 LINE",
"210 698 LINE",
"210 648 OFFCURVE",
"210 562 OFFCURVE",
"210 532 CURVE",
"210 517 OFFCURVE",
"232 507 OFFCURVE",
"245 507 CURVE",
"257 507 OFFCURVE",
"284 518 OFFCURVE",
"284 533 CURVE",
"284 563 OFFCURVE",
"285 648 OFFCURVE",
"284 698 CURVE",
"463 698 LINE",
"463 410 LINE",
"463 410 LINE"
);
},
{
closed = 1;
nodes = (
"280 402 LINE",
"280 382 OFFCURVE",
"280 316 OFFCURVE",
"280 296 CURVE",
"280 285 OFFCURVE",
"255 283 OFFCURVE",
"245 283 CURVE",
"235 283 OFFCURVE",
"210 285 OFFCURVE",
"210 297 CURVE",
"210 317 OFFCURVE",
"210 383 OFFCURVE",
"210 403 CURVE",
"210 414 OFFCURVE",
"235 416 OFFCURVE",
"245 416 CURVE",
"255 416 OFFCURVE",
"278 413 OFFCURVE",
"279 402 CURVE"
);
}
);
width = 493;
}
);
unicode = 304B;
},
{
glyphname = "ki-hira";
lastChange = "2020-12-24 22:29:27 +0000";
layers = (
{
layerId = "9D2CFCBA-A91A-4722-94B4-AF0C172E062A";
paths = (
{
closed = 1;
nodes = (
"463 698 LINE",
"463 1 LINE",
"30 1 LINE",
"30 65 LINE",
"74 65 OFFCURVE",
"150 65 OFFCURVE",
"173 65 CURVE",
"180 65 OFFCURVE",
"184 76 OFFCURVE",
"188 82 CURVE",
"191 88 OFFCURVE",
"193 97 OFFCURVE",
"193 104 CURVE",
"193 164 OFFCURVE",
"194 447 OFFCURVE",
"193 447 CURVE",
"193 447 OFFCURVE",
"239 469 OFFCURVE",
"254 490 CURVE",
"270 512 OFFCURVE",
"284 558 OFFCURVE",
"284 568 CURVE",
"284 698 LINE",
"284 698 LINE"
);
}
);
width = 493;
}
);
unicode = 304D;
},
{
glyphname = "ku-hira";
lastChange = "2020-12-24 22:32:42 +0000";
layers = (
{
layerId = "9D2CFCBA-A91A-4722-94B4-AF0C172E062A";
paths = (
{
closed = 1;
nodes = (
"417 588 OFFCURVE",
"286 587 OFFCURVE",
"255 587 CURVE",
"239 587 OFFCURVE",
"236 559 OFFCURVE",
"236 545 CURVE",
"235 531 OFFCURVE",
"237 504 OFFCURVE",
"252 504 CURVE",
"286 504 OFFCURVE",
"410 504 OFFCURVE",
"463 504 CURVE",
"463 196 LINE",
"417 195 OFFCURVE",
"286 195 OFFCURVE",
"255 195 CURVE",
"239 195 OFFCURVE",
"236 167 OFFCURVE",
"236 153 CURVE",
"235 139 OFFCURVE",
"237 111 OFFCURVE",
"252 111 CURVE",
"286 111 OFFCURVE",
"410 111 OFFCURVE",
"463 111 CURVE",
"463 1 LINE",
"30 1 LINE",
"30 132 LINE",
"40 163 OFFCURVE",
"55 206 OFFCURVE",
"68 224 CURVE",
"82 244 OFFCURVE",
"147 279 OFFCURVE",
"147 279 CURVE",
"147 407 LINE",
"147 407 OFFCURVE",
"82 442 OFFCURVE",
"68 462 CURVE",
"55 480 OFFCURVE",
"40 523 OFFCURVE",
"30 554 CURVE",
"30 698 LINE",
"463 698 LINE",
"463 588 LINE",
"463 588 LINE"
);
}
);
width = 493;
}
);
unicode = 304F;
},
{
glyphname = "ke-hira";
lastChange = "2020-12-24 22:34:35 +0000";
layers = (
{
layerId = "9D2CFCBA-A91A-4722-94B4-AF0C172E062A";
paths = (
{
closed = 1;
nodes = (
"426 402 OFFCURVE",
"372 417 OFFCURVE",
"332 417 CURVE",
"280 407 OFFCURVE",
"197 376 OFFCURVE",
"197 281 CURVE",
"197 186 OFFCURVE",
"271 151 OFFCURVE",
"329 141 CURVE",
"369 141 OFFCURVE",
"426 158 OFFCURVE",
"463 173 CURVE",
"463 1 LINE",
"30 1 LINE",
"30 698 LINE",
"463 698 LINE",
"463 387 LINE",
"463 387 LINE"
);
}
);
width = 493;
}
);
unicode = 3051;
},
{
glyphname = "ko-hira";
lastChange = "2020-12-24 22:35:57 +0000";
layers = (
{
layerId = "9D2CFCBA-A91A-4722-94B4-AF0C172E062A";
paths = (
{
closed = 1;
nodes = (
"61 267 OFFCURVE",
"110 247 OFFCURVE",
"168 192 CURVE",
"258 107 OFFCURVE",
"283 39 OFFCURVE",
"290 1 CURVE",
"30 1 LINE",
"30 274 LINE",
"30 274 LINE"
);
},
{
closed = 1;
nodes = (
"68 483 OFFCURVE",
"123 477 OFFCURVE",
"154 463 CURVE",
"313 395 OFFCURVE",
"415 262 OFFCURVE",
"463 184 CURVE",
"463 1 LINE",
"373 1 LINE",
"359 57 OFFCURVE",
"320 171 OFFCURVE",
"227 254 CURVE",
"181 295 OFFCURVE",
"84 333 OFFCURVE",
"30 352 CURVE",
"30 485 LINE",
"30 485 LINE"
);
},
{
closed = 1;
nodes = (
"418 380 OFFCURVE",
"332 460 OFFCURVE",
"275 495 CURVE",
"202 540 OFFCURVE",
"91 555 OFFCURVE",
"30 561 CURVE",
"30 698 LINE",
"463 698 LINE",
"463 336 LINE",
"463 336 LINE"
);
}
);
width = 493;
}
);
unicode = 3053;
},
{
glyphname = "sa-hira";
lastChange = "2020-12-24 22:40:48 +0000";
layers = (
{
layerId = "9D2CFCBA-A91A-4722-94B4-AF0C172E062A";
paths = (
{
closed = 1;
nodes = (
"433 570 OFFCURVE",
"379 571 OFFCURVE",
"356 570 CURVE",
"319 569 OFFCURVE",
"302 495 OFFCURVE",
"302 455 CURVE",
"302 415 OFFCURVE",
"330 341 OFFCURVE",
"366 341 CURVE",
"388 341 OFFCURVE",
"434 341 OFFCURVE",
"463 341 CURVE",
"463 1 LINE",
"343 1 LINE",
"343 33 OFFCURVE",
"343 118 OFFCURVE",
"343 150 CURVE",
"343 200 OFFCURVE",
"287 220 OFFCURVE",
"247 220 CURVE",
"207 220 OFFCURVE",
"150 200 OFFCURVE",
"150 150 CURVE",
"149 117 OFFCURVE",
"150 36 OFFCURVE",
"150 1 CURVE",
"30 1 LINE",
"30 340 LINE",
"59 340 OFFCURVE",
"100 340 OFFCURVE",
"119 340 CURVE",
"156 340 OFFCURVE",
"185 415 OFFCURVE",
"185 455 CURVE",
"185 495 OFFCURVE",
"167 569 OFFCURVE",
"130 570 CURVE",
"109 571 OFFCURVE",
"62 570 OFFCURVE",
"30 570 CURVE",
"30 698 LINE",
"463 698 LINE",
"463 570 LINE",
"463 570 LINE"
);
}
);
width = 493;
}
);
unicode = 3055;
},
{
glyphname = "si-hira";
lastChange = "2020-12-24 22:47:09 +0000";
layers = (
{
layerId = "9D2CFCBA-A91A-4722-94B4-AF0C172E062A";
paths = (
{
closed = 1;
nodes = (
"102 604 OFFCURVE",
"102 331 OFFCURVE",
"102 266 CURVE",
"102 259 OFFCURVE",
"118 253 OFFCURVE",
"125 253 CURVE",
"132 254 OFFCURVE",
"142 262 OFFCURVE",
"148 269 CURVE",
"177 303 OFFCURVE",
"300 459 OFFCURVE",
"300 458 CURVE",
"300 458 OFFCURVE",
"228 459 OFFCURVE",
"208 459 CURVE",
"197 459 OFFCURVE",
"184 472 OFFCURVE",
"177 482 CURVE",
"169 491 OFFCURVE",
"164 505 OFFCURVE",
"164 516 CURVE",
"164 547 OFFCURVE",
"165 651 OFFCURVE",
"165 698 CURVE",
"463 698 LINE",
"463 1 LINE",
"387 1 LINE",
"387 101 OFFCURVE",
"387 363 OFFCURVE",
"387 427 CURVE",
"387 434 OFFCURVE",
"371 440 OFFCURVE",
"364 440 CURVE",
"357 439 OFFCURVE",
"347 431 OFFCURVE",
"341 424 CURVE",
"312 390 OFFCURVE",
"189 233 OFFCURVE",
"189 234 CURVE",
"189 234 OFFCURVE",
"261 234 OFFCURVE",
"281 234 CURVE",
"292 234 OFFCURVE",
"305 221 OFFCURVE",
"312 211 CURVE",
"320 202 OFFCURVE",
"325 188 OFFCURVE",
"325 177 CURVE",
"325 147 OFFCURVE",
"324 51 OFFCURVE",
"324 1 CURVE",
"30 1 LINE",
"30 698 LINE",
"102 698 LINE",
"102 698 LINE"
);
}
);
width = 493;
}
);
unicode = 3057;
},
{
glyphname = "su-hira";
lastChange = "2020-12-24 22:50:50 +0000";
layers = (
{
layerId = "9D2CFCBA-A91A-4722-94B4-AF0C172E062A";
paths = (
{
closed = 1;
nodes = (
"108 624 OFFCURVE",
"110 424 OFFCURVE",
"110 359 CURVE",
"110 324 OFFCURVE",
"121 286 OFFCURVE",
"135 256 CURVE",
"149 227 OFFCURVE",
"196 180 OFFCURVE",
"196 180 CURVE",
"268 283 LINE",
"268 283 OFFCURVE",
"227 287 OFFCURVE",
"215 298 CURVE",
"200 313 OFFCURVE",
"176 352 OFFCURVE",
"176 380 CURVE",
"175 439 OFFCURVE",
"172 634 OFFCURVE",
"171 698 CURVE",
"463 698 LINE",
"463 1 LINE",
"396 1 LINE",
"396 79 OFFCURVE",
"391 271 OFFCURVE",
"391 335 CURVE",
"391 371 OFFCURVE",
"382 408 OFFCURVE",
"368 438 CURVE",
"354 467 OFFCURVE",
"307 514 OFFCURVE",
"307 514 CURVE",
"235 411 LINE",
"235 411 OFFCURVE",
"276 408 OFFCURVE",
"288 396 CURVE",
"303 382 OFFCURVE",
"326 342 OFFCURVE",
"327 314 CURVE",
"327 257 OFFCURVE",
"331 70 OFFCURVE",
"331 1 CURVE",
"30 1 LINE",
"30 698 LINE",
"107 698 LINE",
"107 698 LINE"
);
}
);
width = 493;
}
);
unicode = 3059;
},
{
glyphname = "se-hira";
lastChange = "2020-12-24 22:52:42 +0000";
layers = (
{
layerId = "9D2CFCBA-A91A-4722-94B4-AF0C172E062A";
paths = (
{
closed = 1;
nodes = (
"448 463 OFFCURVE",
"421 463 OFFCURVE",
"411 463 CURVE",
"406 463 OFFCURVE",
"401 459 OFFCURVE",
"398 455 CURVE",
"394 451 OFFCURVE",
"390 445 OFFCURVE",
"390 439 CURVE",
"390 371 OFFCURVE",
"390 85 OFFCURVE",
"390 1 CURVE",
"308 1 LINE",
"308 698 LINE",
"463 698 LINE",
"463 464 LINE",
"463 464 LINE"
);
},
{
closed = 1;
nodes = (
"173 258 OFFCURVE",
"153 258 OFFCURVE",
"145 257 CURVE",
"140 257 OFFCURVE",
"135 253 OFFCURVE",
"132 249 CURVE",
"128 244 OFFCURVE",
"124 238 OFFCURVE",
"124 231 CURVE",
"124 194 OFFCURVE",
"123 99 OFFCURVE",
"124 1 CURVE",
"30 1 LINE",
"30 698 LINE",
"188 698 LINE",
"188 258 LINE",
"188 258 LINE"
);
}
);
width = 493;
}
);
unicode = 305B;
},
{
glyphname = "so-hira";
lastChange = "2020-12-24 23:12:18 +0000";
layers = (
{
layerId = "9D2CFCBA-A91A-4722-94B4-AF0C172E062A";
paths = (
{
closed = 1;
nodes = (
"185 464 LINE",
"185 698 LINE",
"30 698 LINE",
"30 1 LINE",
"113 1 LINE",
"113 85 OFFCURVE",
"113 371 OFFCURVE",
"113 439 CURVE",
"114 445 OFFCURVE",
"116 451 OFFCURVE",
"120 455 CURVE",
"124 459 OFFCURVE",
"128 463 OFFCURVE",
"134 463 CURVE",
"143 463 OFFCURVE",
"170 463 OFFCURVE",
"185 464 CURVE"
);
},
{
closed = 1;
nodes = (
"448 441 OFFCURVE",
"428 442 OFFCURVE",
"421 442 CURVE",
"415 442 OFFCURVE",
"411 446 OFFCURVE",
"407 451 CURVE",
"403 455 OFFCURVE",
"399 461 OFFCURVE",
"399 468 CURVE",
"398 505 OFFCURVE",
"399 600 OFFCURVE",
"399 698 CURVE",
"306 698 LINE",
"306 1 LINE",
"463 1 LINE",
"463 441 LINE",
"463 441 LINE"
);
}
);
width = 493;
}
);
unicode = 305D;
},
{
glyphname = "ta-hira";
lastChange = "2020-12-24 22:55:59 +0000";
layers = (
{
layerId = "9D2CFCBA-A91A-4722-94B4-AF0C172E062A";
paths = (
{
closed = 1;
nodes = (
"172 441 OFFCURVE",
"152 442 OFFCURVE",
"145 442 CURVE",
"139 442 OFFCURVE",
"135 446 OFFCURVE",
"131 451 CURVE",
"127 455 OFFCURVE",
"123 461 OFFCURVE",
"123 468 CURVE",
"122 505 OFFCURVE",
"123 600 OFFCURVE",
"123 698 CURVE",
"30 698 LINE",
"30 1 LINE",
"187 1 LINE",
"187 441 LINE",
"187 441 LINE"
);
},
{
closed = 1;
nodes = (
"448 236 OFFCURVE",
"421 236 OFFCURVE",
"411 236 CURVE",
"406 236 OFFCURVE",
"401 240 OFFCURVE",
"398 244 CURVE",
"394 248 OFFCURVE",
"391 254 OFFCURVE",
"391 260 CURVE",
"391 328 OFFCURVE",
"391 615 OFFCURVE",
"391 698 CURVE",
"308 698 LINE",
"308 1 LINE",
"463 1 LINE",
"463 236 LINE",
"463 236 LINE"
);
}
);
width = 493;
}
);
unicode = 305F;
},
{
glyphname = "ti-hira";
lastChange = "2020-12-24 22:57:32 +0000";
layers = (
{
layerId = "9D2CFCBA-A91A-4722-94B4-AF0C172E062A";
paths = (
{
closed = 1;
nodes = (
"449 113 OFFCURVE",
"422 113 OFFCURVE",
"412 113 CURVE",
"407 113 OFFCURVE",
"402 113 OFFCURVE",
"399 114 CURVE",
"395 116 OFFCURVE",
"391 128 OFFCURVE",
"391 130 CURVE",
"391 152 OFFCURVE",
"391 200 OFFCURVE",
"390 226 CURVE",
"309 226 LINE",
"309 1 LINE",
"464 1 LINE",
"464 113 LINE",
"464 113 LINE"
);
},
{
closed = 1;
nodes = (
"171 113 OFFCURVE",
"143 113 OFFCURVE",
"134 113 CURVE",
"129 113 OFFCURVE",
"124 113 OFFCURVE",
"120 114 CURVE",
"117 116 OFFCURVE",
"113 128 OFFCURVE",
"113 130 CURVE",
"112 152 OFFCURVE",
"112 200 OFFCURVE",
"112 226 CURVE",
"30 226 LINE",
"30 1 LINE",
"186 1 LINE",
"186 113 LINE",
"186 113 LINE"
);
}
);
width = 494;
}
);
unicode = 3061;
},
{
glyphname = "tu-hira";
lastChange = "2020-12-24 23:56:16 +0000";
layers = (
{
layerId = "9D2CFCBA-A91A-4722-94B4-AF0C172E062A";
paths = (
{
closed = 1;
nodes = (
"464 114 LINE",
"464 226 LINE",
"309 226 LINE",
"309 1 LINE",
"390 1 LINE",
"391 27 OFFCURVE",
"391 75 OFFCURVE",
"391 97 CURVE",
"391 99 OFFCURVE",
"395 111 OFFCURVE",
"399 113 CURVE",
"402 114 OFFCURVE",
"407 114 OFFCURVE",
"412 114 CURVE",
"422 114 OFFCURVE",
"449 114 OFFCURVE",
"464 114 CURVE"
);
},
{
closed = 1;
nodes = (
"186 114 LINE",
"186 226 LINE",
"30 226 LINE",
"30 1 LINE",
"112 1 LINE",
"112 27 OFFCURVE",
"112 75 OFFCURVE",
"113 97 CURVE",
"113 99 OFFCURVE",
"117 111 OFFCURVE",
"120 113 CURVE",
"124 114 OFFCURVE",
"129 114 OFFCURVE",
"134 114 CURVE",
"143 114 OFFCURVE",
"171 114 OFFCURVE",
"186 114 CURVE"
);
}
);
width = 494;
}
);
unicode = 3064;
},
